<svg xmlns="http://www.w3.org/2000/svg" viewBox="0 0 19.27 19.27"><defs><style>.cls-1{fill:#1d1d1b;}.cls-2{fill:#fff;}</style></defs><g id="Ebene_2" data-name="Ebene 2"><g id="Ebene_1-2" data-name="Ebene 1"><path class="cls-1" d="M9.64,0A9.69,9.69,0,0,0,7.09.34H7.4A7.54,7.54,0,0,1,10,.74,4.47,4.47,0,0,1,11.71,1.8a2.08,2.08,0,0,1,.62,1.44,1.35,1.35,0,0,1-.56,1.15,2.32,2.32,0,0,1-1.44.42,6,6,0,0,0-.68-3.16A2.51,2.51,0,0,0,7.37.59,3.54,3.54,0,0,0,5.68,1,2.64,2.64,0,0,0,4.55,2.14a4.3,4.3,0,0,0-.39,1.94,3.9,3.9,0,0,0,.45,2A3.94,3.94,0,0,0,6,7.38c.62.36,1.39.76,2.32,1.2s1.62.79,2.34,1.21a5.55,5.55,0,0,1,1.73,1.6A4.38,4.38,0,0,1,13,13.92a4.91,4.91,0,0,1-.7,2.65,4.51,4.51,0,0,1-2,1.72,7.66,7.66,0,0,1-3.23.61H7a9.78,9.78,0,0,0,2.67.37A9.64,9.64,0,0,0,9.64,0Z"/><path class="cls-1" d="M2,14.44a1.38,1.38,0,0,1,.62-.6,2.22,2.22,0,0,1,1-.2A9.07,9.07,0,0,0,4,16.41a3.24,3.24,0,0,0,1.2,1.68,3.54,3.54,0,0,0,2.05.56,3.67,3.67,0,0,0,2.62-.95,3.71,3.71,0,0,0,1-2.8,3.56,3.56,0,0,0-.42-1.84,3.94,3.94,0,0,0-1.34-1.28,21.83,21.83,0,0,0-2.42-1.25c-.52-.26-1.06-.53-1.6-.82A7.71,7.71,0,0,1,3.59,8.64,4.7,4.7,0,0,1,2.48,7.13,5,5,0,0,1,2.06,5a5.47,5.47,0,0,1,.21-1.57,9.64,9.64,0,0,0-.48,11.81A1.84,1.84,0,0,1,2,14.44Z"/><path class="cls-2" d="M11.24,8.59a.86.86,0,0,1-.64-.25,1.22,1.22,0,0,1-.25-.88,1.23,1.23,0,0,1,.25-.9.89.89,0,0,1,.64-.24.92.92,0,0,1,.63.24,1.18,1.18,0,0,1,.26.9,1.17,1.17,0,0,1-.26.88A.88.88,0,0,1,11.24,8.59Z"/><path class="cls-2" d="M12.74,8.1c.19-.29.39-.62.6-1s.41-.71.61-1.08.36-.7.49-1h1.83v.2a8.4,8.4,0,0,1-.62.65c-.26.26-.55.53-.87.82l-1,.86c-.31.27-.61.51-.88.72h-.2Z"/></g></g></svg>