<svg xmlns="http://www.w3.org/2000/svg" viewBox="0 0 66.74 66.74"><defs><style>.cls-1{fill:#94af87;}.cls-2{fill:#b6d7a8;}.cls-3{fill:#fff;}</style></defs><g id="Ebene_2" data-name="Ebene 2"><g id="lOGOS"><circle class="cls-1" cx="33.33" cy="33.41" r="33.33"/><path class="cls-2" d="M33.41,0a33.55,33.55,0,0,0-8.8,1.18l1.05,0a26.08,26.08,0,0,1,9,1.4,15.34,15.34,0,0,1,5.95,3.67,7.18,7.18,0,0,1,2.14,5,4.7,4.7,0,0,1-1.92,4,8.13,8.13,0,0,1-5,1.44q0-7.26-2.36-10.93C31.87,3.26,29.25,2,25.57,2a12.3,12.3,0,0,0-5.86,1.35,9.14,9.14,0,0,0-3.89,4,14.59,14.59,0,0,0-1.36,6.69A13.31,13.31,0,0,0,16,21a13.15,13.15,0,0,0,4.77,4.5q3.18,1.89,8,4.16a89.55,89.55,0,0,1,8.09,4.2,18.38,18.38,0,0,1,6,5.51,15.19,15.19,0,0,1,2.28,8.75,16.91,16.91,0,0,1-2.41,9.18,15.62,15.62,0,0,1-7,6,26.75,26.75,0,0,1-11.16,2.1H24.2A33.33,33.33,0,1,0,33.41,0Z"/><path class="cls-2" d="M.08,33.33A33.22,33.22,0,0,0,6.27,52.67,6.62,6.62,0,0,1,7,49.93a4.92,4.92,0,0,1,2.15-2.06,7.65,7.65,0,0,1,3.41-.7A30.94,30.94,0,0,0,14,56.75a11.28,11.28,0,0,0,4.16,5.82,12.24,12.24,0,0,0,7.08,1.92,12.61,12.61,0,0,0,9.06-3.28q3.45-3.27,3.45-9.66a12.52,12.52,0,0,0-1.44-6.39,13.39,13.39,0,0,0-4.64-4.42,80.37,80.37,0,0,0-8.35-4.33q-2.72-1.3-5.56-2.84A27.26,27.26,0,0,1,12.5,29.9a15.82,15.82,0,0,1-3.85-5.25A17.46,17.46,0,0,1,7.2,17.26,18.8,18.8,0,0,1,8,11.83,33.17,33.17,0,0,0,.08,33.33"/><path class="cls-3" d="M39,29.72a3,3,0,0,1-2.22-.87,4.3,4.3,0,0,1-.87-3.06,4.26,4.26,0,0,1,.87-3.09,3.27,3.27,0,0,1,4.4,0,4.16,4.16,0,0,1,.91,3.09,4.21,4.21,0,0,1-.91,3.06A3.06,3.06,0,0,1,39,29.72Z"/><path class="cls-3" d="M44.13,28c.66-1,1.35-2.15,2.08-3.37s1.43-2.46,2.11-3.73,1.25-2.41,1.72-3.44h6.32v.7c-.51.61-1.23,1.36-2.14,2.25s-1.92,1.84-3,2.85-2.21,2-3.31,2.95-2.12,1.79-3,2.49h-.71Z"/></g></g></svg>